<svg width="485" height="422" viewBox="0 0 485 422" fill="none" xmlns="http://www.w3.org/2000/svg">
<g clip-path="url(#clip0)">
<path d="M420.17 422C455.975 422 485 419.786 485 417.055C485 414.324 455.975 412.111 420.17 412.111C384.366 412.111 355.341 414.324 355.341 417.055C355.341 419.786 384.366 422 420.17 422Z" fill="#E6E6E6"/>
<path d="M445.291 275.492L439.021 292.98C438.546 294.306 438.544 295.755 439.014 297.082C439.485 298.409 440.4 299.532 441.604 300.262V300.262C442.48 300.793 443.476 301.095 444.5 301.14C445.524 301.185 446.543 300.971 447.462 300.519C448.382 300.067 449.173 299.39 449.762 298.552C450.352 297.714 450.721 296.74 450.835 295.722L452.825 278.003L467.893 228.193L454.918 221.915L445.291 275.492Z" fill="#A0616A"/>
<path d="M440.059 407.552H449.267V317.977L428.339 317.559L440.059 407.552Z" fill="#A0616A"/>
<path d="M399.039 407.552H408.247V317.977L387.319 317.559L399.039 407.552Z" fill="#A0616A"/>
<path d="M450.732 327.395L426.873 324.884L421.851 298.514L412.642 325.302L384.18 322.372L395.9 278.003C417.323 263.446 437.67 263.764 457.01 278.003L450.732 327.395Z" fill="#2F2E41"/>
<path d="M410.281 411.367C410.423 412.503 410.302 413.657 409.928 414.74C409.553 415.822 408.935 416.804 408.121 417.61C407.307 418.415 406.318 419.023 405.232 419.386C404.146 419.75 402.991 419.858 401.856 419.704L384.892 417.404C383.375 417.167 382.014 416.338 381.107 415.099C380.2 413.86 379.822 412.311 380.056 410.794C380.266 409.425 380.96 408.177 382.011 407.275C383.062 406.373 384.401 405.878 385.786 405.878H388.583L397.785 397.493C397.876 403.204 402.082 401.936 409.033 401.379L410.281 411.367Z" fill="#2F2E41"/>
<path d="M451.301 411.367C451.443 412.503 451.322 413.657 450.947 414.74C450.573 415.822 449.955 416.804 449.14 417.61C448.326 418.415 447.338 419.023 446.252 419.386C445.166 419.75 444.01 419.858 442.876 419.704L425.911 417.404C424.394 417.167 423.033 416.338 422.127 415.099C421.22 413.86 420.842 412.311 421.075 410.794V410.794C421.286 409.425 421.979 408.177 423.03 407.275C424.082 406.373 425.421 405.878 426.805 405.878H429.602L438.805 397.493C438.896 403.204 443.101 401.936 450.052 401.379L451.301 411.367Z" fill="#2F2E41"/>
<path d="M418.607 175.034C426.756 175.034 433.361 168.428 433.361 160.28C433.361 152.131 426.756 145.525 418.607 145.525C410.458 145.525 403.853 152.131 403.853 160.28C403.853 168.428 410.458 175.034 418.607 175.034Z" fill="#A0616A"/>
<path d="M437.338 185.08L418.921 186.755V170.43L428.548 164.57L437.338 185.08Z" fill="#A0616A"/>
<path d="M459.104 284.282C440.576 270.715 418.329 272.093 393.808 282.608C404.917 251.156 409.65 221.845 400.923 197.048C400.923 192.667 402.382 188.41 405.068 184.95C407.755 181.489 411.517 179.021 415.762 177.936L418.922 177.127L434.409 177.964L448.951 186.489C451.917 188.228 454.379 190.709 456.095 193.688C457.811 196.667 458.721 200.041 458.737 203.479L459.104 284.282Z" fill="#E6E6E6"/>
<path d="M387.529 272.143L381.259 289.632C380.784 290.957 380.782 292.406 381.253 293.733C381.723 295.06 382.638 296.184 383.842 296.913C384.719 297.444 385.715 297.746 386.739 297.791C387.762 297.836 388.781 297.623 389.701 297.171C390.62 296.718 391.411 296.042 392.001 295.203C392.59 294.365 392.959 293.392 393.073 292.373L395.063 274.655L410.131 224.845L397.156 218.566L387.529 272.143Z" fill="#A0616A"/>
<path d="M471.241 237.82H450.731V187.592C454.279 189.562 457.36 192.273 459.768 195.539C462.175 198.806 463.852 202.552 464.684 206.524L471.241 237.82Z" fill="#E6E6E6"/>
<path d="M407.358 152.291C406.457 152.717 405.463 152.911 404.468 152.858C403.472 152.804 402.506 152.503 401.655 151.982C400.824 151.433 400.195 150.625 399.868 149.683C399.54 148.741 399.531 147.718 399.842 146.771C400.464 145.171 402.038 144.17 403.566 143.387C406.935 141.662 410.546 140.456 414.276 139.809C416.055 139.502 417.938 139.332 419.618 139.99C420.45 140.315 421.196 140.83 422.021 141.171C423.539 141.797 425.232 141.8 426.839 142.139C428.484 142.498 430.032 143.207 431.379 144.216C432.726 145.226 433.841 146.513 434.648 147.99C435.176 148.995 435.582 150.061 435.857 151.163C436.63 154.178 436.62 157.342 435.827 160.352C434.564 165.122 431.348 169.504 431.638 174.429C429.26 173.044 428.147 170.226 426.161 168.321C424.685 166.914 422.776 166.049 420.745 165.867C420.19 165.889 419.64 165.749 419.163 165.465C418.817 165.127 418.578 164.694 418.475 164.221L416.239 157.216C415.784 155.79 415.234 154.241 413.948 153.476C413.154 153.074 412.278 152.862 411.389 152.854C409.262 152.7 407.125 152.72 405.001 152.915" fill="#2F2E41"/>
<path d="M412.224 228.612L388.366 219.403L399.201 190.209C400.463 186.809 402.679 183.845 405.583 181.674C408.486 179.502 411.955 178.214 415.573 177.964V177.964L412.224 228.612Z" fill="#E6E6E6"/>
<path d="M283.87 312.551H21.8416C20.5981 312.55 19.4059 312.056 18.5266 311.176C17.6473 310.297 17.1527 309.105 17.1514 307.861V22.0636C17.1527 20.82 17.6473 19.6278 18.5266 18.7485C19.4059 17.8692 20.5981 17.3746 21.8416 17.3732H283.87C285.114 17.3746 286.306 17.8692 287.185 18.7485C288.065 19.6278 288.559 20.82 288.561 22.0636V307.861C288.559 309.105 288.065 310.297 287.185 311.176C286.306 312.056 285.114 312.55 283.87 312.551ZM21.8416 19.2494C21.0955 19.2502 20.3802 19.5469 19.8526 20.0745C19.325 20.6021 19.0283 21.3174 19.0275 22.0636V307.861C19.0283 308.607 19.325 309.323 19.8526 309.85C20.3802 310.378 21.0955 310.675 21.8416 310.675H283.87C284.616 310.675 285.332 310.378 285.859 309.85C286.387 309.323 286.684 308.607 286.684 307.861V22.0636C286.684 21.3174 286.387 20.6021 285.859 20.0745C285.332 19.5469 284.616 19.2502 283.87 19.2494H21.8416Z" fill="#E6E6E6"/>
<path d="M75.9123 123.904C79.3119 123.904 82.0678 121.148 82.0678 117.748C82.0678 114.348 79.3119 111.593 75.9123 111.593C72.5127 111.593 69.7568 114.348 69.7568 117.748C69.7568 121.148 72.5127 123.904 75.9123 123.904Z" fill="#E6E6E6"/>
<path d="M101.56 123.904C104.959 123.904 107.715 121.148 107.715 117.748C107.715 114.348 104.959 111.593 101.56 111.593C98.1602 111.593 95.4043 114.348 95.4043 117.748C95.4043 121.148 98.1602 123.904 101.56 123.904Z" fill="#E6E6E6"/>
<path d="M127.207 123.904C130.607 123.904 133.363 121.148 133.363 117.748C133.363 114.348 130.607 111.593 127.207 111.593C123.808 111.593 121.052 114.348 121.052 117.748C121.052 121.148 123.808 123.904 127.207 123.904Z" fill="#333333"/>
<path d="M152.856 123.904C156.255 123.904 159.011 121.148 159.011 117.748C159.011 114.348 156.255 111.593 152.856 111.593C149.456 111.593 146.7 114.348 146.7 117.748C146.7 121.148 149.456 123.904 152.856 123.904Z" fill="#333333"/>
<path d="M178.503 123.904C181.903 123.904 184.659 121.148 184.659 117.748C184.659 114.348 181.903 111.593 178.503 111.593C175.104 111.593 172.348 114.348 172.348 117.748C172.348 121.148 175.104 123.904 178.503 123.904Z" fill="#333333"/>
<path d="M204.152 123.904C207.551 123.904 210.307 121.148 210.307 117.748C210.307 114.348 207.551 111.593 204.152 111.593C200.752 111.593 197.996 114.348 197.996 117.748C197.996 121.148 200.752 123.904 204.152 123.904Z" fill="#E6E6E6"/>
<path d="M229.8 123.904C233.2 123.904 235.956 121.148 235.956 117.748C235.956 114.348 233.2 111.593 229.8 111.593C226.4 111.593 223.645 114.348 223.645 117.748C223.645 121.148 226.4 123.904 229.8 123.904Z" fill="#E6E6E6"/>
<path d="M75.9123 143.397C79.3119 143.397 82.0678 140.641 82.0678 137.241C82.0678 133.841 79.3119 131.085 75.9123 131.085C72.5127 131.085 69.7568 133.841 69.7568 137.241C69.7568 140.641 72.5127 143.397 75.9123 143.397Z" fill="#E6E6E6"/>
<path d="M101.56 143.397C104.959 143.397 107.715 140.641 107.715 137.241C107.715 133.841 104.959 131.085 101.56 131.085C98.1602 131.085 95.4043 133.841 95.4043 137.241C95.4043 140.641 98.1602 143.397 101.56 143.397Z" fill="#E6E6E6"/>
<path d="M127.207 143.397C130.607 143.397 133.363 140.641 133.363 137.241C133.363 133.841 130.607 131.085 127.207 131.085C123.808 131.085 121.052 133.841 121.052 137.241C121.052 140.641 123.808 143.397 127.207 143.397Z" fill="#E6E6E6"/>
<path d="M152.856 143.397C156.255 143.397 159.011 140.641 159.011 137.241C159.011 133.841 156.255 131.085 152.856 131.085C149.456 131.085 146.7 133.841 146.7 137.241C146.7 140.641 149.456 143.397 152.856 143.397Z" fill="#E6E6E6"/>
<path d="M178.503 143.397C181.903 143.397 184.659 140.641 184.659 137.241C184.659 133.841 181.903 131.085 178.503 131.085C175.104 131.085 172.348 133.841 172.348 137.241C172.348 140.641 175.104 143.397 178.503 143.397Z" fill="#E6E6E6"/>
<path d="M204.152 143.397C207.551 143.397 210.307 140.641 210.307 137.241C210.307 133.841 207.551 131.085 204.152 131.085C200.752 131.085 197.996 133.841 197.996 137.241C197.996 140.641 200.752 143.397 204.152 143.397Z" fill="#E6E6E6"/>
<path d="M229.8 143.397C233.2 143.397 235.956 140.641 235.956 137.241C235.956 133.841 233.2 131.085 229.8 131.085C226.4 131.085 223.645 133.841 223.645 137.241C223.645 140.641 226.4 143.397 229.8 143.397Z" fill="#E6E6E6"/>
<path d="M75.9123 162.889C79.3119 162.889 82.0678 160.133 82.0678 156.734C82.0678 153.334 79.3119 150.578 75.9123 150.578C72.5127 150.578 69.7568 153.334 69.7568 156.734C69.7568 160.133 72.5127 162.889 75.9123 162.889Z" fill="#333333"/>
<path d="M101.56 162.889C104.959 162.889 107.715 160.133 107.715 156.734C107.715 153.334 104.959 150.578 101.56 150.578C98.1602 150.578 95.4043 153.334 95.4043 156.734C95.4043 160.133 98.1602 162.889 101.56 162.889Z" fill="#333333"/>
<path d="M127.207 162.889C130.607 162.889 133.363 160.133 133.363 156.734C133.363 153.334 130.607 150.578 127.207 150.578C123.808 150.578 121.052 153.334 121.052 156.734C121.052 160.133 123.808 162.889 127.207 162.889Z" fill="#333333"/>
<path d="M152.856 162.889C156.255 162.889 159.011 160.133 159.011 156.734C159.011 153.334 156.255 150.578 152.856 150.578C149.456 150.578 146.7 153.334 146.7 156.734C146.7 160.133 149.456 162.889 152.856 162.889Z" fill="#E6E6E6"/>
<path d="M178.503 162.889C181.903 162.889 184.659 160.133 184.659 156.734C184.659 153.334 181.903 150.578 178.503 150.578C175.104 150.578 172.348 153.334 172.348 156.734C172.348 160.133 175.104 162.889 178.503 162.889Z" fill="#E6E6E6"/>
<path d="M204.152 162.889C207.551 162.889 210.307 160.133 210.307 156.734C210.307 153.334 207.551 150.578 204.152 150.578C200.752 150.578 197.996 153.334 197.996 156.734C197.996 160.133 200.752 162.889 204.152 162.889Z" fill="#E6E6E6"/>
<path d="M229.8 162.889C233.2 162.889 235.956 160.133 235.956 156.734C235.956 153.334 233.2 150.578 229.8 150.578C226.4 150.578 223.645 153.334 223.645 156.734C223.645 160.133 226.4 162.889 229.8 162.889Z" fill="#E6E6E6"/>
<path d="M75.9123 182.382C79.3119 182.382 82.0678 179.626 82.0678 176.226C82.0678 172.827 79.3119 170.071 75.9123 170.071C72.5127 170.071 69.7568 172.827 69.7568 176.226C69.7568 179.626 72.5127 182.382 75.9123 182.382Z" fill="#E6E6E6"/>
<path d="M101.56 182.382C104.959 182.382 107.715 179.626 107.715 176.226C107.715 172.827 104.959 170.071 101.56 170.071C98.1602 170.071 95.4043 172.827 95.4043 176.226C95.4043 179.626 98.1602 182.382 101.56 182.382Z" fill="#E6E6E6"/>
<path d="M75.9123 201.875C79.3119 201.875 82.0678 199.119 82.0678 195.719C82.0678 192.319 79.3119 189.564 75.9123 189.564C72.5127 189.564 69.7568 192.319 69.7568 195.719C69.7568 199.119 72.5127 201.875 75.9123 201.875Z" fill="#E6E6E6"/>
<path d="M101.56 201.875C104.959 201.875 107.715 199.119 107.715 195.719C107.715 192.319 104.959 189.564 101.56 189.564C98.1602 189.564 95.4043 192.319 95.4043 195.719C95.4043 199.119 98.1602 201.875 101.56 201.875Z" fill="#E6E6E6"/>
<path d="M127.207 201.875C130.607 201.875 133.363 199.119 133.363 195.719C133.363 192.319 130.607 189.564 127.207 189.564C123.808 189.564 121.052 192.319 121.052 195.719C121.052 199.119 123.808 201.875 127.207 201.875Z" fill="#E6E6E6"/>
<path d="M127.207 182.382C130.607 182.382 133.363 179.626 133.363 176.226C133.363 172.827 130.607 170.071 127.207 170.071C123.808 170.071 121.052 172.827 121.052 176.226C121.052 179.626 123.808 182.382 127.207 182.382Z" fill="#E6E6E6"/>
<path d="M152.856 182.382C156.255 182.382 159.011 179.626 159.011 176.226C159.011 172.827 156.255 170.071 152.856 170.071C149.456 170.071 146.7 172.827 146.7 176.226C146.7 179.626 149.456 182.382 152.856 182.382Z" fill="#333333"/>
<path d="M178.503 182.382C181.903 182.382 184.659 179.626 184.659 176.226C184.659 172.827 181.903 170.071 178.503 170.071C175.104 170.071 172.348 172.827 172.348 176.226C172.348 179.626 175.104 182.382 178.503 182.382Z" fill="#333333"/>
<path d="M204.152 182.382C207.551 182.382 210.307 179.626 210.307 176.226C210.307 172.827 207.551 170.071 204.152 170.071C200.752 170.071 197.996 172.827 197.996 176.226C197.996 179.626 200.752 182.382 204.152 182.382Z" fill="#333333"/>
<path d="M229.8 182.382C233.2 182.382 235.956 179.626 235.956 176.226C235.956 172.827 233.2 170.071 229.8 170.071C226.4 170.071 223.645 172.827 223.645 176.226C223.645 179.626 226.4 182.382 229.8 182.382Z" fill="#E6E6E6"/>
<path d="M106.259 63.3374C105.284 63.3535 104.353 63.7523 103.669 64.4479C102.985 65.1435 102.602 66.0802 102.602 67.0559C102.602 68.0317 102.985 68.9684 103.669 69.664C104.353 70.3596 105.284 70.7584 106.259 70.7745H199.493C199.981 70.783 200.467 70.6952 200.921 70.516C201.376 70.3367 201.791 70.0697 202.142 69.73C202.494 69.3903 202.775 68.9847 202.969 68.5364C203.164 68.088 203.268 67.6057 203.276 67.1171C203.284 66.6284 203.196 66.1429 203.016 65.6885C202.836 65.234 202.569 64.8193 202.229 64.4683C201.889 64.1173 201.483 63.8367 201.034 63.6427C200.586 63.4486 200.103 63.3449 199.615 63.3374C199.574 63.3367 199.533 63.3367 199.493 63.3374H106.259Z" fill="#3F3D56"/>
<path d="M220.635 62.302C220.567 62.37 220.513 62.4506 220.476 62.5394C220.44 62.6282 220.421 62.7233 220.421 62.8194C220.421 62.9155 220.44 63.0107 220.476 63.0995C220.513 63.1882 220.567 63.2689 220.635 63.3369L223.776 66.478H216.031C215.836 66.478 215.65 66.5551 215.513 66.6924C215.376 66.8296 215.299 67.0157 215.299 67.2098C215.299 67.4038 215.376 67.59 215.513 67.7272C215.65 67.8644 215.836 67.9415 216.031 67.9415H223.776L220.635 71.0827C220.567 71.1506 220.513 71.2313 220.476 71.3201C220.44 71.4089 220.421 71.504 220.421 71.6001C220.421 71.6962 220.44 71.7913 220.476 71.8801C220.513 71.9689 220.567 72.0496 220.635 72.1175C220.703 72.1855 220.784 72.2393 220.872 72.2761C220.961 72.3129 221.056 72.3318 221.152 72.3318C221.249 72.3318 221.344 72.3129 221.432 72.2761C221.521 72.2394 221.602 72.1855 221.67 72.1175L226.06 67.7272C226.197 67.59 226.274 67.4038 226.274 67.2098C226.274 67.0157 226.197 66.8296 226.06 66.6924L221.67 62.302C221.602 62.2341 221.521 62.1802 221.433 62.1434C221.344 62.1066 221.249 62.0877 221.153 62.0877C221.056 62.0877 220.961 62.1066 220.873 62.1434C220.784 62.1802 220.703 62.2341 220.635 62.302Z" fill="#E6E6E6"/>
<path d="M85.0769 62.302C85.1448 62.37 85.1987 62.4506 85.2355 62.5394C85.2723 62.6282 85.2912 62.7234 85.2912 62.8194C85.2912 62.9155 85.2723 63.0107 85.2355 63.0995C85.1987 63.1882 85.1448 63.2689 85.0769 63.3369L81.9357 66.4781H89.6814C89.8755 66.4781 90.0616 66.5551 90.1988 66.6924C90.336 66.8296 90.4131 67.0157 90.4131 67.2098C90.4131 67.4039 90.336 67.59 90.1988 67.7272C90.0616 67.8644 89.8755 67.9415 89.6814 67.9415H81.9357L85.0769 71.0827C85.2141 71.2199 85.2912 71.406 85.2912 71.6001C85.2912 71.7942 85.2141 71.9803 85.0769 72.1175C84.9397 72.2547 84.7535 72.3318 84.5595 72.3318C84.3654 72.3318 84.1793 72.2548 84.0421 72.1175L79.6518 67.7272C79.5146 67.59 79.4375 67.4039 79.4375 67.2098C79.4375 67.0157 79.5146 66.8296 79.6518 66.6924L84.0421 62.302C84.11 62.2341 84.1907 62.1802 84.2795 62.1434C84.3682 62.1066 84.4634 62.0877 84.5595 62.0877C84.6556 62.0877 84.7507 62.1066 84.8395 62.1434C84.9283 62.1802 85.0089 62.2341 85.0769 62.302V62.302Z" fill="#E6E6E6"/>
<path d="M101.047 241.163C99.295 241.161 97.5598 241.506 95.9406 242.175C94.3214 242.845 92.8501 243.827 91.6107 245.066C90.3713 246.304 89.3881 247.775 88.7173 249.394C88.0464 251.013 87.7012 252.748 87.7012 254.5C87.7012 256.252 88.0464 257.987 88.7173 259.606C89.3881 261.225 90.3713 262.695 91.6107 263.934C92.8501 265.172 94.3214 266.155 95.9406 266.824C97.5598 267.494 99.295 267.838 101.047 267.837H204.665C206.417 267.838 208.152 267.494 209.771 266.824C211.391 266.155 212.862 265.172 214.101 263.934C215.341 262.695 216.324 261.225 216.995 259.606C217.666 257.987 218.011 256.252 218.011 254.5C218.011 252.748 217.666 251.013 216.995 249.394C216.324 247.775 215.341 246.304 214.101 245.066C212.862 243.827 211.391 242.845 209.771 242.175C208.152 241.506 206.417 241.161 204.665 241.163H101.047Z" fill="#E6E6E6"/>
<path d="M21.4329 42.8665C17.1939 42.8665 13.05 41.6095 9.52541 39.2543C6.00079 36.8992 3.25369 33.5518 1.63149 29.6354C0.00928693 25.719 -0.415156 21.4095 0.411836 17.2518C1.23883 13.0942 3.28011 9.27515 6.27755 6.27766C9.27499 3.28017 13.094 1.23885 17.2515 0.411844C21.4091 -0.415162 25.7185 0.00928352 29.6349 1.63151C33.5512 3.25375 36.8986 6.0009 39.2536 9.52558C41.6087 13.0503 42.8657 17.1942 42.8657 21.4332C42.8593 27.1157 40.5992 32.5636 36.5811 36.5818C32.5631 40.5999 27.1153 42.8601 21.4329 42.8665V42.8665Z" fill="#333333"/>
<path d="M29.8903 19.319H23.5477V12.9762C23.5477 12.4155 23.3249 11.8777 22.9284 11.4812C22.5319 11.0847 21.9942 10.8619 21.4334 10.8619C20.8727 10.8619 20.3349 11.0847 19.9384 11.4812C19.5419 11.8777 19.3192 12.4155 19.3192 12.9762V19.319H12.9765C12.4158 19.319 11.878 19.5418 11.4815 19.9383C11.0851 20.3348 10.8623 20.8725 10.8623 21.4333C10.8623 21.994 11.0851 22.5318 11.4815 22.9283C11.878 23.3248 12.4158 23.5475 12.9765 23.5475H19.3192V29.8903C19.3192 30.451 19.5419 30.9888 19.9384 31.3853C20.3349 31.7818 20.8727 32.0046 21.4334 32.0046C21.9942 32.0046 22.5319 31.7818 22.9284 31.3853C23.3249 30.9888 23.5477 30.451 23.5477 29.8903V23.5475H29.8903C30.451 23.5475 30.9887 23.3248 31.3852 22.9283C31.7817 22.5318 32.0045 21.994 32.0045 21.4333C32.0045 20.8725 31.7817 20.3348 31.3852 19.9383C30.9887 19.5418 30.451 19.319 29.8903 19.319Z" fill="white"/>
</g>
<defs>
<clipPath id="clip0">
<rect width="485" height="422" fill="white"/>
</clipPath>
</defs>
</svg>
