<svg width="136" height="113" viewBox="0 0 136 113" fill="none" xmlns="http://www.w3.org/2000/svg">
<g clip-path="url(#clip0)">
<path d="M124.338 102.922C122.931 107.665 125.114 112.514 125.114 112.514C125.114 112.514 129.578 109.673 130.985 104.93C132.392 100.188 130.209 95.3385 130.209 95.3385C130.209 95.3385 125.744 98.1791 124.338 102.922Z" fill="#F2F2F2"/>
<path d="M126.474 103.05C127.658 107.855 125.25 112.595 125.25 112.595C125.25 112.595 120.924 109.545 119.74 104.741C118.556 99.9362 120.963 95.1963 120.963 95.1963C120.963 95.1963 125.29 98.2458 126.474 103.05Z" fill="#F2F2F2"/>
<path d="M10.8172 103.111C9.41034 107.854 11.5937 112.703 11.5937 112.703C11.5937 112.703 16.058 109.862 17.4648 105.12C18.8716 100.377 16.6882 95.5276 16.6882 95.5276C16.6882 95.5276 12.224 98.3682 10.8172 103.111Z" fill="#E6E6E6"/>
<path d="M12.953 103.239C14.1371 108.044 11.73 112.784 11.73 112.784C11.73 112.784 7.40315 109.734 6.21912 104.93C5.03509 100.125 7.44221 95.3853 7.44221 95.3853C7.44221 95.3853 11.769 98.4349 12.953 103.239Z" fill="#E6E6E6"/>
<path d="M62.9426 58.5942C68.4796 58.5942 72.9683 54.064 72.9683 48.4758C72.9683 42.8876 68.4796 38.3574 62.9426 38.3574C57.4056 38.3574 52.917 42.8876 52.917 48.4758C52.917 54.064 57.4056 58.5942 62.9426 58.5942Z" fill="#333333"/>
<path d="M62.4873 112.633H59.7225C59.3997 112.632 59.0902 112.503 58.8619 112.272C58.6337 112.042 58.5053 111.73 58.5049 111.404V88.1468C58.5053 87.821 58.6337 87.5086 58.8619 87.2782C59.0902 87.0478 59.3997 86.9183 59.7225 86.9179H62.4873C62.8102 86.9183 63.1197 87.0478 63.3479 87.2782C63.5762 87.5086 63.7046 87.821 63.705 88.1468V111.404C63.7046 111.73 63.5762 112.042 63.3479 112.272C63.1197 112.503 62.8102 112.632 62.4873 112.633V112.633Z" fill="#333333"/>
<path d="M70.271 74.9561L69.004 72.4759C68.8564 72.1862 68.8287 71.8491 68.927 71.5388C69.0253 71.2285 69.2415 70.9701 69.5283 70.8205L90.0102 60.1629C90.2973 60.0139 90.6312 59.9859 90.9387 60.0851C91.2462 60.1843 91.5022 60.4026 91.6504 60.692L92.9174 63.1722C93.065 63.4619 93.0927 63.7989 92.9945 64.1093C92.8962 64.4196 92.6799 64.6779 92.3932 64.8276L71.9113 75.4852C71.6242 75.6342 71.2902 75.6621 70.9827 75.5629C70.6752 75.4637 70.4193 75.2455 70.271 74.9561V74.9561Z" fill="#333333"/>
<path d="M77.3547 100.159L75.1056 101.782C74.8428 101.971 74.5164 102.047 74.1979 101.994C73.8794 101.94 73.595 101.762 73.4069 101.497L60.0039 82.5783C59.8165 82.3131 59.7409 81.9836 59.7938 81.6622C59.8468 81.3408 60.0238 81.0537 60.2862 80.8639L62.5353 79.2409C62.7982 79.0517 63.1246 78.9754 63.4431 79.0288C63.7615 79.0822 64.046 79.261 64.234 79.5258L77.637 98.4443C77.8245 98.7095 77.9 99.039 77.8471 99.3604C77.7942 99.6818 77.6171 99.9689 77.3547 100.159V100.159Z" fill="#333333"/>
<path d="M70.0936 112.47L67.6184 111.226C67.0174 110.924 66.6796 110.372 66.8655 109.995L73.2446 97.0632C73.4304 96.6865 74.0706 96.6256 74.6716 96.9276L77.1468 98.1713C77.7478 98.4733 78.0856 99.0255 77.8997 99.4023L71.5207 112.334C71.3348 112.711 70.6946 112.771 70.0936 112.47Z" fill="#333333"/>
<path d="M70.028 52.2177L70.0176 51.8396C70.7146 51.82 71.3291 51.7759 71.7908 51.4355C71.9217 51.3335 72.0293 51.2042 72.1063 51.0565C72.1832 50.9087 72.2278 50.746 72.2369 50.5793C72.245 50.4775 72.2297 50.3752 72.1923 50.2802C72.1548 50.1853 72.0962 50.1004 72.0209 50.0321C71.7145 49.7707 71.2213 49.8552 70.8617 50.0218L70.5518 50.1652L71.1462 45.7808L71.5174 45.8321L71.0117 49.5617C71.5003 49.4167 71.9528 49.4789 72.2628 49.7433C72.3818 49.8482 72.4752 49.9794 72.5356 50.1268C72.5961 50.2741 72.622 50.4335 72.6113 50.5926C72.6003 50.8166 72.541 51.0354 72.4374 51.2337C72.3339 51.4321 72.1886 51.6051 72.0118 51.7408C71.4185 52.1784 70.6475 52.2002 70.028 52.2177Z" fill="#2F2E41"/>
<path d="M69.0022 46.1538H66.9844V46.5319H69.0022V46.1538Z" fill="#2F2E41"/>
<path d="M78.8957 82.9976C78.8957 91.2464 71.146 90.5601 62.9728 90.5601C54.7996 90.5601 49.2979 91.2464 49.2979 82.9976C49.2979 74.7488 54.7996 60.6885 62.9728 60.6885C71.146 60.6885 78.8957 74.7488 78.8957 82.9976Z" fill="#CCCCCC"/>
<path d="M68.8685 37.7612C68.494 35.5084 67.08 33.5717 65.2608 32.2644C63.4773 31.0054 61.3452 30.3475 59.169 30.3848C54.9554 30.4315 50.8355 32.8134 48.5764 36.3874C46.0737 40.347 46.0243 45.5177 47.7162 49.7988C48.1487 50.9016 48.6971 51.9544 49.3519 52.9393C50.0782 54.0254 50.958 54.9836 51.8137 55.9645C53.4085 57.7926 55.2369 60.335 54.1683 62.8858C53.7735 63.8279 52.9408 64.6845 51.8811 64.752C50.9866 64.8089 49.9948 64.3771 49.5981 63.5285C49.1538 62.5777 49.769 61.4525 50.678 61.0634C51.6313 60.6553 52.6221 61.2573 52.9743 62.1834C53.1493 62.6098 53.1552 63.0877 52.9909 63.5184C52.9559 63.5839 52.9468 63.6604 52.9655 63.7324C52.9842 63.8045 53.0293 63.8666 53.0917 63.9064C53.1562 63.9439 53.2327 63.9542 53.3047 63.9352C53.3766 63.9161 53.4383 63.8692 53.4762 63.8046C53.6653 63.3274 53.7064 62.8034 53.5939 62.3021C53.4814 61.8008 53.2207 61.3458 52.8463 60.9974C52.4664 60.63 51.9697 60.4105 51.4445 60.3777C50.9193 60.345 50.3996 60.5011 49.9777 60.8184C49.0868 61.4752 48.6157 62.6507 49.0672 63.7115C49.4581 64.63 50.404 65.1847 51.3592 65.3018C51.8861 65.3542 52.4174 65.268 52.9016 65.0517C53.3857 64.8353 53.8061 64.4962 54.1218 64.0673C54.8263 63.1363 55.1455 61.9658 55.0123 60.8021C54.6996 57.8993 52.4017 55.9147 50.6767 53.7903C49.1427 51.8868 48.0617 49.6535 47.5167 47.2624C46.959 44.9121 46.9798 42.4598 47.5773 40.1195C48.1568 37.9005 49.3478 35.8928 51.0121 34.3293C52.6096 32.8353 54.5605 31.7803 56.6778 31.2655C58.7712 30.7395 60.9742 30.8748 62.9889 31.6531C65.1007 32.4986 66.9749 34.1716 67.8679 36.3019C68.0825 36.8187 68.2365 37.359 68.3266 37.912C68.3863 38.2711 68.9279 38.1188 68.8685 37.7612V37.7612Z" fill="#2F2E41"/>
<path d="M68.8566 37.8466C69.7949 36.9342 71.3244 36.8027 72.4549 37.4207C73.6243 38.0599 74.0936 39.4366 73.7937 40.7105C73.6397 41.4221 73.2323 42.0519 72.6488 42.4805C72.3541 42.6876 72.6347 43.1794 72.9325 42.9702C74.1974 42.0815 74.7301 40.3688 74.2984 38.8873C73.8476 37.3404 72.3505 36.4169 70.787 36.4786C69.9198 36.5018 69.0913 36.8459 68.4592 37.4455C68.1983 37.6993 68.596 38.1 68.8566 37.8466Z" fill="#2F2E41"/>
<path d="M60.6487 71.9736L62.2001 69.6639C62.3815 69.3944 62.6615 69.2086 62.9785 69.1472C63.2955 69.0857 63.6238 69.1537 63.8912 69.3362L82.9654 82.3863C83.2324 82.5694 83.4165 82.852 83.4773 83.1719C83.5382 83.4919 83.4708 83.8232 83.29 84.093L81.7386 86.4028C81.5571 86.6722 81.2772 86.8581 80.9602 86.9195C80.6431 86.9809 80.3149 86.9129 80.0475 86.7304L60.9733 73.6803C60.7063 73.4972 60.5222 73.2147 60.4613 72.8947C60.4005 72.5747 60.4678 72.2435 60.6487 71.9736V71.9736Z" fill="#333333"/>
<path d="M96.5303 60.0428C96.5814 59.3753 96.3961 58.7112 96.0076 58.1686L91.1069 54.6394C91.0139 54.5724 90.9088 54.5246 90.7974 54.4986C90.6861 54.4727 90.5708 54.4691 90.4582 54.4881C90.3455 54.5071 90.2376 54.5483 90.1407 54.6094C90.0438 54.6705 89.9598 54.7503 89.8935 54.8441L89.189 55.8406C89.1864 55.8379 89.1865 55.8337 89.1834 55.8315C89.1692 55.8213 89.1516 55.8172 89.1345 55.8201C89.1173 55.823 89.102 55.8326 89.0919 55.8469L88.8031 56.2553C88.7981 56.2624 88.7946 56.2704 88.7926 56.2789C88.7907 56.2873 88.7904 56.2961 88.7918 56.3047C88.7933 56.3133 88.7963 56.3215 88.8009 56.3288C88.8055 56.3362 88.8114 56.3426 88.8184 56.3476C88.8215 56.35 88.8254 56.3485 88.8287 56.35L88.5174 56.7904C88.5155 56.788 88.5135 56.7858 88.5113 56.7837C88.5036 56.7782 88.4948 56.7742 88.4855 56.772C88.4762 56.7698 88.4666 56.7695 88.4572 56.7711C88.4479 56.7727 88.4389 56.7762 88.4308 56.7812C88.4227 56.7863 88.4157 56.793 88.4102 56.8008L87.8588 57.5807C87.8532 57.5885 87.8493 57.5974 87.8471 57.6067C87.845 57.6161 87.8447 57.6258 87.8463 57.6352C87.8478 57.6447 87.8513 57.6538 87.8563 57.6619C87.8613 57.6701 87.8679 57.6771 87.8757 57.6827C87.8783 57.6841 87.8811 57.6854 87.8839 57.6865L87.6601 58.003C87.6584 58.0017 87.6576 57.9997 87.6558 57.9984C87.6409 57.9877 87.6224 57.9834 87.6043 57.9864C87.5863 57.9895 87.5701 57.9996 87.5595 58.0147L86.9981 58.8088C86.9874 58.8238 86.9831 58.8425 86.9862 58.8607C86.9892 58.879 86.9992 58.8952 87.0142 58.906C87.0159 58.9072 87.018 58.9074 87.0199 58.9086L81.7427 66.3725C81.6916 67.04 81.8768 67.7041 82.2654 68.2467L87.1661 71.7759C87.2591 71.8429 87.3642 71.8907 87.4755 71.9167C87.5869 71.9427 87.7021 71.9462 87.8148 71.9272C87.9275 71.9082 88.0354 71.867 88.1322 71.8059C88.2291 71.7448 88.3132 71.665 88.3795 71.5712L94.0584 63.539C94.0643 63.5476 94.0714 63.5553 94.0795 63.5619C94.092 63.5707 94.1061 63.577 94.1211 63.5804C94.136 63.5838 94.1515 63.5842 94.1665 63.5815C94.1816 63.5788 94.196 63.5732 94.2089 63.5649C94.2218 63.5567 94.233 63.5459 94.2418 63.5332L95.2163 62.155C95.2253 62.1425 95.2317 62.1283 95.2353 62.1133C95.2388 62.0983 95.2394 62.0827 95.237 62.0675C95.2346 62.0522 95.2292 62.0376 95.2212 62.0244C95.2132 62.0113 95.2027 61.9998 95.1903 61.9908C95.1815 61.9852 95.172 61.9809 95.162 61.978L96.5303 60.0428Z" fill="#3A3768"/>
<path d="M95.5649 58.3784L94.8434 57.8558L94.7813 57.9429C94.7044 58.0496 94.5894 58.122 94.4605 58.1448C94.3317 58.1675 94.1991 58.1389 94.0909 58.0648L91.7849 56.403C91.6755 56.3239 91.6018 56.2043 91.5797 56.0704C91.5577 55.9364 91.5893 55.7992 91.6675 55.6887L91.7297 55.6016L91.0392 55.1139C90.9071 55.0177 90.7424 54.9784 90.5816 55.0048C90.4207 55.0311 90.2768 55.1208 90.1815 55.2542L90.1797 55.2567L82.2123 66.5274C82.1176 66.6616 82.0794 66.8281 82.1059 66.9906C82.1324 67.1532 82.2215 67.2985 82.3539 67.3949L86.8899 70.6594C87.0224 70.7552 87.1871 70.7939 87.3479 70.767C87.5087 70.7402 87.6523 70.65 87.7472 70.5163L87.7494 70.5131L95.7168 59.2459C95.8108 59.1115 95.8481 58.945 95.8205 58.7829C95.7928 58.6208 95.7025 58.4765 95.5694 58.3816L95.5649 58.3784Z" fill="#F2F2F2"/>
<path d="M92.7625 56.4198L93.465 56.9258C93.4768 56.9343 93.4869 56.945 93.4945 56.9575C93.5022 56.9699 93.5074 56.9837 93.5098 56.9981C93.5122 57.0126 93.5118 57.0273 93.5085 57.0416C93.5052 57.0559 93.4992 57.0694 93.4908 57.0813C93.4823 57.0932 93.4717 57.1033 93.4594 57.1111C93.4471 57.1188 93.4334 57.1241 93.4191 57.1265C93.4048 57.1289 93.3901 57.1284 93.376 57.1251C93.3618 57.1218 93.3485 57.1158 93.3367 57.1073L92.6342 56.6014C92.6224 56.5929 92.6124 56.5821 92.6047 56.5697C92.597 56.5572 92.5918 56.5434 92.5894 56.529C92.587 56.5145 92.5875 56.4998 92.5907 56.4855C92.594 56.4712 92.6 56.4578 92.6084 56.4458V56.4458C92.6169 56.4339 92.6275 56.4238 92.6398 56.416C92.6521 56.4083 92.6658 56.403 92.6801 56.4006C92.6945 56.3982 92.7091 56.3987 92.7232 56.402C92.7374 56.4053 92.7507 56.4113 92.7625 56.4198V56.4198Z" fill="#E6E8EC"/>
<path d="M93.7083 57.3854C93.7769 57.3854 93.8325 57.3293 93.8325 57.26C93.8325 57.1907 93.7769 57.1346 93.7083 57.1346C93.6396 57.1346 93.584 57.1907 93.584 57.26C93.584 57.3293 93.6396 57.3854 93.7083 57.3854Z" fill="#E6E8EC"/>
<path d="M90.8869 -3.8147e-06C87.5582 -3.8147e-06 84.3658 1.33456 82.012 3.71009C79.6583 6.08563 78.3359 9.30755 78.3359 12.6671C78.3359 19.6623 91.4863 45.4691 91.4863 45.4691C91.4863 45.4691 103.438 19.6661 103.438 12.669C103.438 11.0055 103.114 9.35827 102.483 7.82133C101.853 6.2844 100.928 4.88785 99.7631 3.71143C98.5978 2.53501 97.2143 1.60175 95.6917 0.964942C94.169 0.328133 92.537 0.000244445 90.8888 -3.8147e-06H90.8869ZM90.8869 21.1143C89.5864 21.1143 88.3152 20.7251 87.2339 19.9959C86.1526 19.2667 85.3099 18.2303 84.8122 17.0178C84.3145 15.8052 84.1843 14.4709 84.438 13.1836C84.6917 11.8964 85.318 10.7139 86.2375 9.78588C87.1571 8.85782 88.3287 8.2258 89.6041 7.96974C90.8796 7.71369 92.2017 7.84511 93.4031 8.34737C94.6046 8.84964 95.6315 9.70019 96.354 10.7915C97.0765 11.8828 97.4621 13.1658 97.4621 14.4783V14.4783C97.4621 16.2382 96.7694 17.9261 95.5363 19.1706C94.3032 20.4151 92.6308 21.1143 90.8869 21.1143V21.1143Z" fill="#333333"/>
<path d="M136 112.622H0V113H136V112.622Z" fill="#3F3D56"/>
</g>
<defs>
<clipPath id="clip0">
<rect width="136" height="113" fill="white"/>
</clipPath>
</defs>
</svg>
