<svg width="523" height="316" viewBox="0 0 523 316" fill="none" xmlns="http://www.w3.org/2000/svg">
<g clip-path="url(#clip0)">
<path d="M80.9672 99.0251V114.869C87.6194 114.869 93.9991 117.512 98.703 122.217C103.407 126.921 106.049 133.302 106.049 139.955C106.049 146.609 103.407 152.99 98.703 157.694C93.9991 162.399 87.6194 165.042 80.9672 165.042V180.886H162.814V99.0251H80.9672Z" fill="#F2F2F2"/>
<path d="M80.9672 159.76C91.9034 159.76 100.769 150.893 100.769 139.955C100.769 129.017 91.9034 120.15 80.9672 120.15C70.0309 120.15 61.1654 129.017 61.1654 139.955C61.1654 150.893 70.0309 159.76 80.9672 159.76Z" fill="#F2F2F2"/>
<path d="M381.074 159.783L348.951 139.98V293.114H381.074V159.783Z" fill="#F2F2F2"/>
<path d="M299.666 293.114H331.789V129.4L299.666 109.597V293.114Z" fill="#F2F2F2"/>
<path d="M282.505 99.0163L121.891 0V89.3426H173.375V192.329H121.891V293.114H282.505V99.0163Z" fill="#F2F2F2"/>
<path d="M398.235 170.363V293.114H414.957L460.281 208.613L398.235 170.363Z" fill="#F2F2F2"/>
<path d="M460.639 234.532C433.981 254.461 426.465 289.475 426.465 289.475C426.465 289.475 462.169 292.177 488.826 272.247C515.484 252.317 523 217.303 523 217.303C523 217.303 487.296 214.602 460.639 234.532Z" fill="#3F3D56"/>
<path d="M426.486 289.137C426.486 289.137 426.094 288.919 425.386 288.484C424.821 288.137 424.046 287.652 423.11 287.033C414.732 281.513 393.032 265.275 384.131 240.221C372.996 208.853 386.145 175.543 386.145 175.543C386.145 175.543 414.829 191.672 427.014 220.641C427.545 221.889 428.037 223.162 428.499 224.459C438.189 251.753 429.492 280.515 427.07 287.526C426.706 288.576 426.486 289.137 426.486 289.137Z" fill="#333333"/>
<path d="M426.615 290.128L426.207 289.831C425.915 289.621 396.983 268.362 389.55 236.139C382.115 203.916 398.808 172.127 398.978 171.81L399.216 171.365L399.624 171.661C399.916 171.872 428.847 193.131 436.281 225.354C443.715 257.577 427.022 289.365 426.853 289.682L426.615 290.128ZM399.52 172.684C397.514 176.687 383.533 206.144 390.407 235.941C397.281 265.737 422.754 286.089 426.311 288.809C428.317 284.805 442.298 255.348 435.424 225.552C428.55 195.755 403.077 175.403 399.52 172.684Z" fill="#3F3D56"/>
<path opacity="0.1" d="M427.07 287.526C426.42 287.905 425.852 288.224 425.386 288.484C424.358 289.045 423.788 289.328 423.788 289.328C423.788 289.328 423.519 288.517 423.11 287.033C420.853 278.915 414.391 250.623 425.205 224.637C425.774 223.276 426.377 221.944 427.014 220.641C427.545 221.889 428.037 223.162 428.499 224.459C438.189 251.753 429.492 280.515 427.07 287.526Z" fill="black"/>
<path d="M471.766 243.858C458.982 274.591 426.885 290.462 426.885 290.462C426.885 290.462 415.514 256.504 428.298 225.771C441.082 195.037 473.18 179.166 473.18 179.166C473.18 179.166 484.55 213.124 471.766 243.858Z" fill="#333333"/>
<path d="M472.529 180.351L426.791 289.403L427.602 289.743L473.341 180.692L472.529 180.351Z" fill="#3F3D56"/>
<path d="M518.146 299.492C518.146 303.614 494.441 307.383 455.25 310.277C448.125 310.801 440.486 311.297 432.388 311.764C425.388 312.166 418.053 312.544 410.383 312.898C402.95 313.236 395.232 313.549 387.231 313.839C361.957 314.758 334.021 315.418 304.341 315.749C297.14 315.828 289.84 315.89 282.443 315.935C274.742 315.978 266.952 316 259.073 316C115.99 316 0 308.611 0 299.492C0 290.373 115.99 282.984 259.073 282.984C320.671 282.984 377.243 284.356 421.704 286.639C423.341 286.725 424.961 286.809 426.565 286.89C426.574 286.896 426.585 286.899 426.596 286.898C482.602 289.928 518.146 294.444 518.146 299.492Z" fill="#3F3D56"/>
<path opacity="0.15" d="M518.146 299.492C518.146 303.614 494.441 307.383 455.25 310.277C448.125 310.801 440.486 311.297 432.388 311.764C425.388 312.166 418.053 312.544 410.383 312.898C402.95 313.236 395.232 313.549 387.231 313.839C361.957 314.758 334.021 315.418 304.341 315.749C297.14 315.828 289.84 315.89 282.443 315.935C274.742 315.978 266.952 316 259.073 316C115.99 316 0 308.611 0 299.492C0 290.373 115.99 282.984 259.073 282.984C320.671 282.984 377.243 284.356 421.704 286.639C423.341 286.725 424.961 286.809 426.565 286.89C426.574 286.896 426.585 286.899 426.596 286.898C482.602 289.928 518.146 294.444 518.146 299.492Z" fill="black"/>
<path d="M498.234 296.587C498.234 300.033 476.135 303.184 439.599 305.605C432.959 306.04 425.834 306.454 418.288 306.846C411.762 307.18 404.924 307.496 397.773 307.792C390.842 308.078 383.648 308.341 376.189 308.58C352.625 309.35 326.579 309.9 298.91 310.177C292.199 310.243 285.395 310.295 278.496 310.331C271.315 310.371 264.053 310.39 256.71 310.389C123.317 310.389 15.1814 304.209 15.1814 296.587C15.1814 288.964 123.317 282.785 256.71 282.785C286.206 282.785 314.465 283.088 340.594 283.643H340.66C365.373 284.167 388.18 284.915 408.325 285.844C409.852 285.914 411.363 285.983 412.858 286.05C412.866 286.057 412.877 286.06 412.888 286.059C422.116 286.508 430.75 286.992 438.705 287.512C438.793 287.516 438.881 287.525 438.969 287.529C475.884 289.954 498.234 293.119 498.234 296.587Z" fill="#3F3D56"/>
<path opacity="0.1" d="M438.705 287.512C435.436 308.773 414.82 301.648 389.874 301.648C363.52 301.648 342.003 309.601 340.66 283.643C365.373 284.167 388.18 284.915 408.325 285.844C409.852 285.914 411.363 285.983 412.858 286.05C412.866 286.057 412.877 286.06 412.888 286.059C422.116 286.508 430.75 286.992 438.705 287.512Z" fill="black"/>
<path d="M139.614 281.043C139.614 288.709 135.058 291.385 129.438 291.385C129.308 291.385 129.178 291.383 129.048 291.38C128.788 291.375 128.529 291.363 128.275 291.345C123.202 290.986 119.262 288.172 119.262 281.043C119.262 273.667 128.686 264.359 129.396 263.669L129.397 263.668C129.424 263.641 129.438 263.628 129.438 263.628C129.438 263.628 139.614 273.379 139.614 281.043Z" fill="#333333"/>
<path d="M129.067 290.212L132.789 285.011L129.058 290.784L129.048 291.38C128.788 291.375 128.53 291.363 128.275 291.345L128.676 283.677L128.673 283.617L128.679 283.606L128.718 282.881L124.977 277.095L128.729 282.338L128.738 282.492L129.041 276.698L125.839 270.719L129.08 275.682L129.396 263.669L129.397 263.628V263.668L129.344 273.14L132.532 269.385L129.331 273.956L129.247 279.144L132.224 274.165L129.235 279.907L129.188 282.791L133.508 275.861L129.171 283.797L129.067 290.212Z" fill="#3F3D56"/>
<path d="M340.59 275.683C340.59 246.515 362.655 222.87 389.874 222.87C417.093 222.87 439.159 246.515 439.159 275.683C439.159 304.851 417.093 296.368 389.874 296.368C362.655 296.368 340.59 304.851 340.59 275.683Z" fill="#3F3D56"/>
<path d="M67.4947 240.887H66.6146V300.381H67.4947V240.887Z" fill="#3F3D56"/>
<path d="M67.0547 249.3C71.7004 249.3 75.4666 245.533 75.4666 240.887C75.4666 236.24 71.7004 232.473 67.0547 232.473C62.4089 232.473 58.6427 236.24 58.6427 240.887C58.6427 245.533 62.4089 249.3 67.0547 249.3Z" fill="#3F3D56"/>
<path d="M67.0547 277.554C67.0547 277.554 65.853 251.704 41.218 254.709L67.0547 277.554Z" fill="#3F3D56"/>
<path d="M311.994 250.676C312.213 251.453 312.458 252.224 312.72 252.99C311.545 251.835 310.392 250.649 309.218 249.501C309.689 249.647 310.159 249.794 310.603 249.968C311.087 250.161 311.553 250.398 311.994 250.676ZM306.303 246.819C299.379 240.797 291.356 236.135 284.26 230.297C288.135 232.204 291.904 234.426 295.643 236.556C300.078 239.083 304.565 241.512 309.105 243.842C308.366 245.001 307.415 246.011 306.303 246.819ZM309.265 231.656C309.375 231.543 309.485 231.43 309.596 231.316C309.599 232.172 309.606 232.971 309.616 233.698C308.996 233.492 308.377 233.281 307.76 233.064C308.291 232.627 308.793 232.157 309.265 231.656ZM248.273 247.958C251.126 244.735 253.605 241.198 255.661 237.416C258.41 242.219 262.877 245.683 266.676 249.706C260.555 248.897 254.424 248.23 248.273 247.958Z" fill="url(#paint0_linear)"/>
<path d="M51.6064 292.486C51.6064 300.152 47.0508 302.828 41.4304 302.828C41.3002 302.828 41.17 302.826 41.0408 302.823C40.7804 302.818 40.5219 302.805 40.2672 302.788C35.1946 302.429 31.2544 299.615 31.2544 292.486C31.2544 285.11 40.6783 275.802 41.3882 275.112L41.3892 275.111C41.4163 275.084 41.4304 275.07 41.4304 275.07C41.4304 275.07 51.6064 284.822 51.6064 292.486Z" fill="#333333"/>
<path d="M41.0594 301.655L44.7814 296.454L41.0501 302.226L41.0407 302.823C40.7803 302.818 40.5218 302.805 40.2671 302.788L40.6679 295.119L40.6651 295.059L40.6717 295.049L40.7101 294.324L36.9694 288.538L40.7213 293.781L40.7307 293.934L41.0332 288.141L37.831 282.162L41.0725 287.124L41.3882 275.112L41.3891 275.07V275.111L41.3367 284.583L44.5248 280.828L41.3235 285.399L41.2393 290.587L44.2167 285.608L41.2271 291.35L41.1803 294.234L45.5007 287.304L41.1634 295.24L41.0594 301.655Z" fill="#3F3D56"/>
<path d="M56.765 231.499C59.1953 231.499 61.1654 229.528 61.1654 227.097C61.1654 224.667 59.1953 222.696 56.765 222.696C54.3347 222.696 52.3646 224.667 52.3646 227.097C52.3646 229.528 54.3347 231.499 56.765 231.499Z" fill="#333333"/>
<path d="M339.705 165.496C339.705 165.496 355.668 161.961 357.428 176.045C359.189 190.128 348.951 192.786 348.951 192.786L342.467 194.529L317.385 187.928L320.905 177.805L339.705 165.496Z" fill="#2F2E41"/>
<path d="M333.952 166.273C345.866 166.273 355.524 156.613 355.524 144.697C355.524 132.781 345.866 123.121 333.952 123.121C322.038 123.121 312.38 132.781 312.38 144.697C312.38 156.613 322.038 166.273 333.952 166.273Z" fill="#2F2E41"/>
<path d="M258.149 189.5L262.532 190.381L277.434 212.421L270.86 213.302L258.149 189.5Z" fill="#2F2E41"/>
<path d="M152.131 278.92C153.313 282.81 154.768 286.611 156.487 290.296C161.427 289.262 166.286 287.877 171.029 286.151C171.175 286.098 168.309 282.349 168.008 282.043C166.872 280.887 165.403 279.537 163.901 278.883C162.388 278.225 160.523 278.727 158.903 278.81C156.648 278.925 154.39 278.962 152.131 278.92Z" fill="#FBBEBE"/>
<path d="M163.927 284.807C161.457 284.034 159.955 281.548 158.95 279.15C157.946 276.752 157.135 274.138 155.229 272.378C154.499 272.413 153.911 273.006 153.549 273.646C153.188 274.285 152.973 275.005 152.555 275.609C151.76 276.758 150.363 277.313 149.364 278.287C148.316 279.308 147.743 280.753 146.659 281.735C145.297 282.968 143.371 283.274 141.584 283.681C138.82 284.313 136.15 285.303 133.642 286.626C132.718 287.183 131.73 287.626 130.7 287.945C129.566 288.163 128.405 288.202 127.259 288.06L119.357 287.497C118.654 287.406 117.94 287.438 117.248 287.589C115.624 288.045 114.615 289.859 114.734 291.55C114.854 293.242 115.906 294.758 117.235 295.803C118.61 296.787 120.128 297.556 121.735 298.083C128.618 300.682 135.705 302.707 142.922 304.136L142.926 305.701C147.944 308.169 153.462 309.454 159.054 309.456C159.468 309.488 159.883 309.416 160.261 309.247C160.816 308.946 161.073 308.298 161.278 307.699C163.174 302.154 164.283 296.371 164.574 290.518C164.714 289.034 164.599 287.537 164.234 286.092C163.803 284.669 165.285 285.267 163.914 284.71" fill="#2F2E41"/>
<path d="M315.479 255.014C292.051 256.417 268.896 249.558 245.438 248.825C242.522 248.734 239.574 248.741 236.726 249.381C233.714 250.057 230.906 251.421 228.104 252.724C215.523 258.579 202.508 263.428 189.508 268.27L174.575 273.833C171.591 274.945 168.499 276.074 165.323 275.88C163.899 275.793 162.151 275.577 161.35 276.764C158.921 280.364 160.069 285.652 161.674 289.692C162.195 291.004 163.076 292.418 164.472 292.568C165.455 292.673 166.369 292.104 167.324 291.848C170.043 291.12 172.753 292.948 175.55 293.246C179.006 293.614 182.215 291.645 185.477 290.439C190.887 288.439 196.802 288.502 202.489 287.555C212.024 285.967 220.861 281.538 229.122 276.493C232.268 274.572 235.451 272.514 239.064 271.812C243.219 271.004 247.487 272.074 251.561 273.227C261.275 275.976 270.838 279.233 280.211 282.984C285.146 284.96 290.045 287.078 295.18 288.444C306.287 291.369 318.036 290.683 328.728 286.488C332.478 285.005 336.553 282.385 336.767 278.339C336.89 276.032 335.101 273.999 333.906 272.026C333.139 270.761 332.372 269.495 331.537 268.274C327.497 262.367 322.595 254.588 315.479 255.014Z" fill="#2F2E41"/>
<path opacity="0.1" d="M315.479 255.014C292.051 256.417 268.896 249.558 245.438 248.825C242.522 248.734 239.574 248.741 236.726 249.381C233.714 250.057 230.906 251.421 228.104 252.724C215.523 258.579 202.508 263.428 189.508 268.27L174.575 273.833C171.591 274.945 168.499 276.074 165.323 275.88C163.899 275.793 162.151 275.577 161.35 276.764C158.921 280.364 160.069 285.652 161.674 289.692C162.195 291.004 163.076 292.418 164.472 292.568C165.455 292.673 166.369 292.104 167.324 291.848C170.043 291.12 172.753 292.948 175.55 293.246C179.006 293.614 182.215 291.645 185.477 290.439C190.887 288.439 196.802 288.502 202.489 287.555C212.024 285.967 220.861 281.538 229.122 276.493C232.268 274.572 235.451 272.514 239.064 271.812C243.219 271.004 247.487 272.074 251.561 273.227C261.275 275.976 270.838 279.233 280.211 282.984C285.146 284.96 290.045 287.078 295.18 288.444C306.287 291.369 318.036 290.683 328.728 286.488C332.478 285.005 336.553 282.385 336.767 278.339C336.89 276.032 335.101 273.999 333.906 272.026C333.139 270.761 332.372 269.495 331.537 268.274C327.497 262.367 322.595 254.588 315.479 255.014Z" fill="black"/>
<path d="M197.111 280.061C200.778 281.312 204.477 282.463 208.208 283.513C210.297 280.083 214.205 277.696 215.095 273.775C215.151 273.604 215.151 273.421 215.096 273.25C215.001 273.082 214.853 272.95 214.676 272.874C212.003 271.393 209.035 270.523 205.986 270.327C203.578 270.175 202.479 272.69 201.387 274.457C200.945 275.173 198.092 280.395 197.111 280.061Z" fill="#FBBEBE"/>
<path d="M202.251 277.557C200.085 277.103 197.966 275.939 196.86 274.011C196.342 273.109 195.791 271.892 194.757 271.96C193.797 272.023 193.356 273.169 193.139 274.111C192.33 277.642 191.535 281.201 190.115 284.531C188.695 287.861 186.594 290.987 183.631 293.049C182.272 293.994 180.757 294.7 179.429 295.688C178.235 296.576 177.195 297.69 175.876 298.377C174.994 298.781 174.084 299.121 173.152 299.393C171.781 299.871 170.472 300.508 169.251 301.292C168.177 301.917 167.266 302.787 166.594 303.831C166.264 304.358 166.071 304.959 166.032 305.58C165.994 306.201 166.112 306.821 166.375 307.384C166.658 307.848 167.036 308.247 167.484 308.554C167.933 308.861 168.441 309.069 168.975 309.166C170.043 309.35 171.132 309.377 172.207 309.247C176.479 308.932 180.745 308.551 185.012 308.171C186.817 308.055 188.61 307.805 190.378 307.425C191.313 307.199 192.229 306.9 193.16 306.66C194.755 306.249 196.391 306.011 198.038 305.95C198.516 305.909 198.998 305.953 199.461 306.08C200.449 306.403 201.151 307.386 202.171 307.586C202.825 307.648 203.485 307.56 204.1 307.328C207.174 306.487 210.404 306.51 213.585 306.338C214.986 306.262 216.627 305.996 217.27 304.741C218.072 303.177 216.742 301.427 216.212 299.749C215.948 298.677 215.801 297.58 215.773 296.476C215.528 293.748 214.728 291.099 213.42 288.693C212.333 286.696 210.848 284.488 211.612 282.345C211.872 281.617 212.387 280.94 212.336 280.169C212.111 276.784 204.215 277.968 202.251 277.557Z" fill="#2F2E41"/>
<path d="M280.346 217.423C276.195 215.593 272.869 212.289 271.011 208.149C270.62 207.259 270.299 206.33 269.922 205.432C268.693 202.449 266.783 199.795 264.343 197.683C263.733 197.166 263.017 196.672 262.272 196.807C261.557 196.937 260.994 197.645 260.749 198.439C260.539 199.256 260.487 200.106 260.594 200.942C260.803 202.915 261.142 204.871 261.609 206.799L262.745 211.973C262.885 212.769 263.123 213.544 263.451 214.283C263.941 215.153 264.587 215.926 265.357 216.563C266.394 217.518 267.448 218.448 268.519 219.353C270.006 220.78 271.946 221.643 274.002 221.791C278.654 222.654 283.386 223.897 287.312 226.933C287.268 226.9 287.295 223.463 287.227 223.069C287.048 222.028 286.908 220.997 286.23 220.293C284.708 218.711 282.2 218.247 280.346 217.423Z" fill="#FBBEBE"/>
<path opacity="0.1" d="M280.346 217.423C276.195 215.593 272.869 212.289 271.011 208.149C270.62 207.259 270.299 206.33 269.922 205.432C268.693 202.449 266.783 199.795 264.343 197.683C263.733 197.166 263.017 196.672 262.272 196.807C261.557 196.937 260.994 197.645 260.749 198.439C260.539 199.256 260.487 200.106 260.594 200.942C260.803 202.915 261.142 204.871 261.609 206.799L262.745 211.973C262.885 212.769 263.123 213.544 263.451 214.283C263.941 215.153 264.587 215.926 265.357 216.563C266.394 217.518 267.448 218.448 268.519 219.353C270.006 220.78 271.946 221.643 274.002 221.791C278.654 222.654 283.386 223.897 287.312 226.933C287.268 226.9 287.295 223.463 287.227 223.069C287.048 222.028 286.908 220.997 286.23 220.293C284.708 218.711 282.2 218.247 280.346 217.423Z" fill="black"/>
<path d="M328.058 177.819C331.205 177.819 333.756 175.253 333.756 172.088C333.756 168.924 331.205 166.358 328.058 166.358C324.911 166.358 322.36 168.924 322.36 172.088C322.36 175.253 324.911 177.819 328.058 177.819Z" fill="#2F2E41"/>
<path d="M324.531 168.626C322.984 168.455 321.266 168.328 320.027 169.274C319.369 169.856 318.844 170.571 318.486 171.373C317.294 173.61 316.12 175.889 315.52 178.354C315.011 180.446 314.927 182.633 314.297 184.691C313.129 188.508 310.135 191.73 309.793 195.709C309.64 197.49 309.938 199.575 308.639 200.795C308.318 201.064 307.976 201.307 307.615 201.521C306.715 202.124 305.951 202.91 305.373 203.827C304.886 204.6 304.512 205.488 303.78 206.03C302.621 206.889 300.698 206.802 300.126 208.131C299.539 209.496 301.029 211.016 300.684 212.462C300.403 213.64 299.09 214.18 298.185 214.981C297.027 216.006 296.497 217.554 296.014 219.028C294.108 219.389 292.146 219.332 290.264 218.863C288.382 218.394 286.624 217.522 285.11 216.308C286.701 220.227 286.735 224.551 286.804 228.783C286.827 230.155 286.784 231.696 285.804 232.652C290.34 232.749 294.765 233.978 299.192 234.979C301.126 235.416 303.227 235.796 305.031 234.968C306.043 234.426 306.949 233.705 307.705 232.841C310.113 230.398 312.64 227.734 313.229 224.346C313.559 222.447 313.239 220.499 313.327 218.573C313.435 216.188 314.164 213.883 314.789 211.579C316.066 206.863 316.922 202.043 317.348 197.176C317.61 194.172 320.204 191.755 321.569 189.071C324.147 184.003 326.781 178.726 326.975 173.037C327.04 171.135 326.412 168.835 324.531 168.626Z" fill="#2F2E41"/>
<path opacity="0.1" d="M324.531 168.626C322.984 168.455 321.266 168.328 320.027 169.274C319.369 169.856 318.844 170.571 318.486 171.373C317.294 173.61 316.12 175.889 315.52 178.354C315.011 180.446 314.927 182.633 314.297 184.691C313.129 188.508 310.135 191.73 309.793 195.709C309.64 197.49 309.938 199.575 308.639 200.795C308.318 201.064 307.976 201.307 307.615 201.521C306.715 202.124 305.951 202.91 305.373 203.827C304.886 204.6 304.512 205.488 303.78 206.03C302.621 206.889 300.698 206.802 300.126 208.131C299.539 209.496 301.029 211.016 300.684 212.462C300.403 213.64 299.09 214.18 298.185 214.981C297.027 216.006 296.497 217.554 296.014 219.028C294.108 219.389 292.146 219.332 290.264 218.863C288.382 218.394 286.624 217.522 285.11 216.308C286.701 220.227 286.735 224.551 286.804 228.783C286.827 230.155 286.784 231.696 285.804 232.652C290.34 232.749 294.765 233.978 299.192 234.979C301.126 235.416 303.227 235.796 305.031 234.968C306.043 234.426 306.949 233.705 307.705 232.841C310.113 230.398 312.64 227.734 313.229 224.346C313.559 222.447 313.239 220.499 313.327 218.573C313.435 216.188 314.164 213.883 314.789 211.579C316.066 206.863 316.922 202.043 317.348 197.176C317.61 194.172 320.204 191.755 321.569 189.071C324.147 184.003 326.781 178.726 326.975 173.037C327.04 171.135 326.412 168.835 324.531 168.626Z" fill="black"/>
<path d="M319.194 259.949C314.315 257.627 310.745 253.297 306.8 249.592C299.268 242.519 290.058 237.512 282.139 230.88C276.89 226.484 272.196 221.366 266.428 217.686C261.348 214.451 255.589 212.432 249.601 211.789C248.915 211.671 248.211 211.706 247.54 211.892C246.784 212.226 246.125 212.748 245.625 213.407C243.069 216.291 240.798 219.415 238.843 222.735C228.805 239.777 214.548 254.105 202.736 269.955C202.359 270.327 202.135 270.828 202.109 271.358C202.083 271.887 202.257 272.408 202.595 272.816L204.998 277.525C206.343 280.16 208.497 283.229 211.395 282.706C212.72 282.466 213.775 281.492 214.751 280.559L225.537 270.247L236.846 259.434C243.472 253.099 250.212 246.617 254.531 238.513C257.907 244.369 263.897 248.202 268.006 253.563C269.57 255.602 270.846 257.845 272.242 260.003C274.479 263.464 277.022 266.711 279.562 269.953L292.534 286.514C294.303 288.772 296.122 291.076 298.541 292.608C301.613 294.553 305.35 295.066 308.966 295.39C313.839 295.826 318.732 296.003 323.624 295.92C327.354 295.856 331.2 295.611 334.547 293.955C337.894 292.298 340.643 288.897 340.469 285.15C340.379 283.201 339.532 281.373 338.599 279.663C333.965 271.159 327.91 264.096 319.194 259.949Z" fill="#2F2E41"/>
<path d="M331.564 180.463C333.985 180.463 335.948 178.49 335.948 176.055C335.948 173.621 333.985 171.648 331.564 171.648C329.144 171.648 327.181 173.621 327.181 176.055C327.181 178.49 329.144 180.463 331.564 180.463Z" fill="#2F2E41"/>
<path d="M330.595 172.743C331.664 174.63 331.665 176.979 331.077 179.069C330.489 181.158 329.366 183.048 328.256 184.91C327.163 186.743 326.057 188.592 324.591 190.139C331.356 190.463 337.915 187.809 343.885 184.593C348.688 182.006 353.481 178.812 356.045 173.977C354.546 174.427 352.893 173.982 351.566 173.149C350.278 172.25 349.122 171.174 348.135 169.952L344.739 166.131C343.941 165.298 343.24 164.378 342.65 163.388C341.914 162.034 341.602 160.489 341.753 158.955C340.404 160.368 338.895 161.62 337.258 162.686C334.833 164.265 332.158 165.41 329.727 166.98C328.865 167.537 326.948 168.432 327.442 169.559C327.923 170.658 329.912 171.536 330.595 172.743Z" fill="#FBBEBE"/>
<path opacity="0.1" d="M330.595 172.743C331.664 174.63 331.665 176.979 331.077 179.069C330.489 181.158 329.366 183.048 328.256 184.91C327.163 186.743 326.057 188.592 324.591 190.139C331.356 190.463 337.915 187.809 343.885 184.593C348.688 182.006 353.481 178.812 356.045 173.977C354.546 174.427 352.893 173.982 351.566 173.149C350.278 172.25 349.122 171.174 348.135 169.952L344.739 166.131C343.941 165.298 343.24 164.378 342.65 163.388C341.914 162.034 341.602 160.489 341.753 158.955C340.404 160.368 338.895 161.62 337.258 162.686C334.833 164.265 332.158 165.41 329.727 166.98C328.865 167.537 326.948 168.432 327.442 169.559C327.923 170.658 329.912 171.536 330.595 172.743Z" fill="black"/>
<path d="M330.688 173.411C329.416 175.549 329.144 178.074 330.688 180.023C330.88 180.265 331.594 181.77 331.902 181.784C332.2 181.759 332.477 181.619 332.674 181.393C334.317 179.891 335.521 177.975 336.964 176.278C338.408 174.581 340.228 173.035 342.423 172.693C345.071 172.281 347.628 173.684 349.946 175.038C350.909 175.601 351.908 176.197 352.514 177.137C353.002 178.019 353.29 178.998 353.357 180.004C354.158 186.036 354.14 192.144 354.121 198.23C354.107 202.629 354.091 207.059 353.259 211.377C352.829 213.61 352.183 215.801 351.878 218.053C351.653 220.042 351.562 222.043 351.605 224.043L351.599 232.418C351.543 233.956 351.652 235.496 351.924 237.011C352.321 238.846 353.19 240.54 353.77 242.326C354.368 244.378 354.778 246.48 354.993 248.607L356.139 257.279C356.5 260.011 356.767 262.998 355.116 265.197C354.369 266.191 353.388 266.987 352.631 267.973C349.797 271.665 350.706 276.933 349.523 281.443C348.59 284.746 346.673 287.687 344.026 289.872C342 291.593 339.384 292.947 336.776 292.463C333.256 291.809 331.141 288.138 330.181 284.669C329.221 281.2 328.871 277.424 326.791 274.493C325.093 272.1 322.462 270.595 320.083 268.887C317.704 267.178 315.379 264.976 314.861 262.083C314.635 260.819 314.776 259.518 314.642 258.241C314.453 256.623 313.832 255.086 312.845 253.79C311.859 252.494 310.542 251.487 309.033 250.874C307.231 250.173 305.005 249.923 303.99 248.269C306.61 246.792 308.35 244.063 309.266 241.186C310.183 238.309 310.369 235.256 310.55 232.241L311.152 222.163C311.421 217.659 311.543 213.196 313.526 209.149C314.412 207.339 315.515 205.646 316.438 203.855C317.659 201.342 318.701 198.747 319.558 196.088C320.995 191.959 322.433 187.828 323.715 183.647C324.325 181.655 324.912 179.625 326 177.85C327.089 176.076 328.65 173.794 330.688 173.411Z" fill="#333333"/>
<path d="M308.313 238.882L310.978 238.978L311.546 234.948C311.621 234.142 311.811 233.351 312.111 232.599C312.55 231.804 313.063 231.052 313.643 230.352C316.268 226.644 316.076 221.721 316.726 217.217C317.593 211.21 320.102 205.586 322.584 200.053L327.76 188.514C328.792 186.556 329.286 184.358 329.191 182.146C329.237 180.362 329.765 173.872 329.811 172.088C329.828 171.428 328.356 171.795 328.058 171.207C327.409 169.926 326.521 173.4 325.309 174.162C324.096 174.924 323.427 176.305 322.913 177.646C321.797 180.553 321.115 183.609 320.076 186.544C319.037 189.479 317.583 192.363 315.245 194.406C314.182 195.335 312.958 196.071 311.954 197.064C308.734 200.248 308.42 205.278 308.307 209.818C308.24 212.517 307.718 238.882 308.313 238.882Z" fill="#2F2E41"/>
<path d="M346.697 168.599C344.107 169.617 342.687 172.426 341.959 175.125C341.232 177.824 340.935 180.701 339.544 183.122C336.293 188.782 328.002 190.431 325.708 196.548C324.958 198.549 324.99 200.745 324.788 202.874C324.372 207.256 322.931 211.49 322.505 215.872C322.176 219.266 322.46 222.687 322.745 226.085L325.643 260.65C326.061 265.642 326.05 271.006 324.775 275.849C327.708 276.421 330.758 275.655 333.48 274.414C336.202 273.173 338.686 271.469 341.306 270.024C345.81 267.538 350.778 265.777 354.723 262.466C355.437 261.91 356.048 261.234 356.53 260.468C357.321 259.101 357.386 257.448 357.762 255.913C358.103 254.688 358.537 253.492 359.06 252.333C360.504 248.85 361.762 245.293 362.829 241.676C363.563 239.276 364.142 236.832 364.563 234.358C364.879 232.388 365.05 230.398 365.22 228.409C365.43 225.297 366.049 222.225 367.06 219.273C369.58 212.234 371.007 204.851 371.291 197.38C371.377 196.3 371.303 195.214 371.074 194.157C370.73 192.845 369.956 191.698 369.321 190.501C368.117 188.232 367.394 185.736 366.257 183.432C363.689 178.227 359.155 174.28 354.404 170.973C352.071 169.348 349.34 167.56 346.697 168.599Z" fill="#2F2E41"/>
<path d="M286.119 224.986C284.114 223.818 282.11 222.561 280.6 220.792C279.877 219.945 279.281 218.994 278.546 218.158C276.758 216.122 274.224 214.861 271.604 214.201C268.985 213.541 266.261 213.441 263.56 213.418C261.754 213.403 259.903 213.429 258.212 214.068C256.521 214.706 254.995 216.083 254.668 217.87C254.275 220.02 255.68 222.115 257.366 223.494C258.935 224.775 260.781 225.671 262.757 226.111C264.37 226.394 265.997 226.585 267.631 226.683C277.225 227.687 285.785 232.91 294.193 237.666C301.577 241.843 309.104 245.748 316.776 249.381C317.08 247.084 317.207 244.766 317.154 242.448C317.115 240.718 317.03 238.079 315.395 237.063C313.491 235.879 310.356 235.607 308.207 234.903C303.264 233.282 298.436 231.329 293.756 229.056C291.161 227.796 288.615 226.439 286.119 224.986Z" fill="#FBBEBE"/>
<path d="M328.058 170.766C337.499 170.766 345.152 163.069 345.152 153.575C345.152 144.081 337.499 136.384 328.058 136.384C318.617 136.384 310.964 144.081 310.964 153.575C310.964 163.069 318.617 170.766 328.058 170.766Z" fill="#FBBEBE"/>
<path d="M351.584 188.089C350.057 189.87 349.293 192.163 348.267 194.276C346.156 198.623 342.846 202.355 341.188 206.896C339.439 211.687 339.497 217.386 336.069 221.15C335.473 221.804 334.753 222.436 334.581 223.306C334.479 223.822 334.585 224.375 334.407 224.871C333.915 226.238 331.678 226.307 331.26 227.699C331.138 228.106 331.207 228.557 331.055 228.954C330.712 229.854 329.524 229.992 328.729 230.531C327.07 231.656 327.405 234.274 326.221 235.897C325.284 237.18 323.518 237.611 321.949 237.393C320.381 237.175 318.944 236.424 317.516 235.737C317.025 235.461 316.482 235.29 315.921 235.236C315.259 235.259 314.618 235.478 314.08 235.865C310.922 237.873 309.44 241.85 309.462 245.608C309.484 249.365 310.775 252.985 312.097 256.499C312.277 257.092 312.573 257.643 312.968 258.121C314.015 259.228 315.838 259.049 317.228 258.433C318.619 257.818 319.881 256.848 321.377 256.578C324.022 256.098 326.607 257.916 329.29 257.767C331.256 257.657 332.996 256.514 334.629 255.408C337.237 253.643 339.892 251.833 341.808 249.328C342.982 247.794 343.842 246.046 344.865 244.406C346.181 242.395 347.623 240.469 349.182 238.64L359.039 226.573C361.407 223.994 363.038 220.825 363.76 217.399C364.697 214.183 365.64 210.93 365.803 207.583C365.936 204.827 365.536 202.076 365.087 199.355C364.645 196.676 364.141 193.968 362.964 191.524C360.823 187.076 355.609 183.395 351.584 188.089Z" fill="#2F2E41"/>
<path d="M357.322 137.865C369.236 137.865 378.894 128.205 378.894 116.289C378.894 104.373 369.236 94.7133 357.322 94.7133C345.408 94.7133 335.75 104.373 335.75 116.289C335.75 128.205 345.408 137.865 357.322 137.865Z" fill="#2F2E41"/>
<path d="M375.929 134.155C373.137 136.174 369.902 137.494 366.495 138.005C363.089 138.517 359.609 138.205 356.347 137.096C353.085 135.987 350.137 134.112 347.748 131.63C345.359 129.147 343.599 126.128 342.616 122.826C342.988 125.785 343.97 128.636 345.499 131.196C347.027 133.757 349.071 135.973 351.499 137.704C353.928 139.436 356.689 140.645 359.608 141.255C362.527 141.865 365.541 141.863 368.459 141.249C371.377 140.636 374.137 139.424 376.563 137.69C378.99 135.955 381.03 133.737 382.556 131.174C384.082 128.612 385.06 125.76 385.429 122.801C385.797 119.841 385.548 116.837 384.698 113.978C385.181 117.819 384.622 121.719 383.079 125.269C381.536 128.819 379.066 131.888 375.929 134.155Z" fill="#2F2E41"/>
<path d="M339.705 164.115C348.442 164.115 355.524 157.031 355.524 148.293C355.524 139.555 348.442 132.471 339.705 132.471C330.968 132.471 323.885 139.555 323.885 148.293C323.885 157.031 330.968 164.115 339.705 164.115Z" fill="#2F2E41"/>
<path d="M326.402 153.327C334.146 153.327 340.424 148.417 340.424 142.36C340.424 136.302 334.146 131.392 326.402 131.392C318.658 131.392 312.38 136.302 312.38 142.36C312.38 148.417 318.658 153.327 326.402 153.327Z" fill="#2F2E41"/>
<path d="M331.788 162.101C332.731 161.335 332.563 159.566 331.413 158.152C330.263 156.738 328.567 156.213 327.624 156.979C326.681 157.746 326.849 159.514 327.999 160.929C329.149 162.343 330.845 162.868 331.788 162.101Z" fill="#FBBEBE"/>
<path d="M314.309 299.528C314.309 307.193 309.754 309.87 304.133 309.87C304.003 309.87 303.873 309.868 303.744 309.865C303.483 309.859 303.225 309.847 302.97 309.829C297.898 309.471 293.957 306.657 293.957 299.528C293.957 292.152 303.381 282.844 304.091 282.153L304.092 282.152C304.119 282.125 304.133 282.112 304.133 282.112C304.133 282.112 314.309 291.864 314.309 299.528Z" fill="#333333"/>
<path d="M303.763 308.697L307.485 303.496L303.753 309.268L303.744 309.865C303.483 309.859 303.225 309.847 302.97 309.829L303.371 302.161L303.368 302.101L303.375 302.091L303.413 301.366L299.672 295.58L303.424 300.823L303.434 300.976L303.736 295.183L300.534 289.203L303.776 294.166L304.091 282.153L304.092 282.112V282.152L304.04 291.625L307.228 287.869L304.027 292.441L303.942 297.628L306.92 292.65L303.93 298.392L303.883 301.276L308.204 294.346L303.867 302.282L303.763 308.697Z" fill="#3F3D56"/>
</g>
<defs>
<linearGradient id="paint0_linear" x1="280.496" y1="252.99" x2="280.496" y2="230.297" gradientUnits="userSpaceOnUse">
<stop stop-color="#808080" stop-opacity="0.25"/>
<stop offset="0.53514" stop-color="#808080" stop-opacity="0.12"/>
<stop offset="1" stop-color="#808080" stop-opacity="0.1"/>
</linearGradient>
<clipPath id="clip0">
<rect width="523" height="316" fill="white"/>
</clipPath>
</defs>
</svg>
