<svg width="288" height="241" viewBox="0 0 288 241" fill="none" xmlns="http://www.w3.org/2000/svg">
<g clip-path="url(#clip0)">
<path d="M13.3824 229.648C17.3773 237.074 25.8558 240.262 25.8558 240.262C25.8558 240.262 27.8573 231.409 23.8625 223.983C19.8676 216.556 11.3891 213.368 11.3891 213.368C11.3891 213.368 9.38756 222.221 13.3824 229.648Z" fill="#2F2E41"/>
<path d="M16.1282 227.204C23.3405 231.554 26.1182 240.194 26.1182 240.194C26.1182 240.194 17.2024 241.781 9.99005 237.431C2.7777 233.082 0 224.442 0 224.442C0 224.442 8.91582 222.855 16.1282 227.204Z" fill="#333333"/>
<path d="M177.83 11.5697H132.83V12.2141H177.83V11.5697Z" fill="#F2F2F2"/>
<path d="M165.616 12.053H164.973V18.0138H165.616V12.053Z" fill="#F2F2F2"/>
<path d="M146.009 12.053H145.366V18.0138H146.009V12.053Z" fill="#F2F2F2"/>
<path d="M200.651 42.5013H155.651V43.1457H200.651V42.5013Z" fill="#F2F2F2"/>
<path d="M168.509 36.7016H167.866V42.6624H168.509V36.7016Z" fill="#F2F2F2"/>
<path d="M188.115 36.7016H187.473V42.6624H188.115V36.7016Z" fill="#F2F2F2"/>
<path d="M260.438 57.0005H215.438V57.645H260.438V57.0005Z" fill="#F2F2F2"/>
<path d="M228.294 51.2009H227.651V57.1616H228.294V51.2009Z" fill="#F2F2F2"/>
<path d="M247.902 51.2009H247.259V57.1616H247.902V51.2009Z" fill="#F2F2F2"/>
<path d="M255.938 206.504H210.938V207.148H255.938V206.504Z" fill="#F2F2F2"/>
<path d="M223.794 200.704H223.151V206.665H223.794V200.704Z" fill="#F2F2F2"/>
<path d="M243.402 200.704H242.759V206.665H243.402V200.704Z" fill="#F2F2F2"/>
<path d="M179.116 103.076H134.116V103.72H179.116V103.076Z" fill="#F2F2F2"/>
<path d="M146.973 97.2761H146.33V103.237H146.973V97.2761Z" fill="#F2F2F2"/>
<path d="M166.58 97.2761H165.938V103.237H166.58V97.2761Z" fill="#F2F2F2"/>
<path d="M193.259 180.727H148.259V181.372H193.259V180.727Z" fill="#F2F2F2"/>
<path d="M161.116 174.928H160.473V180.888H161.116V174.928Z" fill="#F2F2F2"/>
<path d="M180.723 174.928H180.08V180.888H180.723V174.928Z" fill="#F2F2F2"/>
<path d="M265.259 157.206H220.259V157.851H265.259V157.206Z" fill="#F2F2F2"/>
<path d="M233.115 151.407H232.473V157.367H233.115V151.407Z" fill="#F2F2F2"/>
<path d="M252.723 151.407H252.08V157.367H252.723V151.407Z" fill="#F2F2F2"/>
<path d="M116.376 226.247H40.2666V225.698H115.829V199.078H46.665L43.3051 192.061L43.7988 191.824L47.0095 198.529H116.376V226.247Z" fill="#2F2E41"/>
<path d="M50.3968 239.695C53.572 239.695 56.1461 237.114 56.1461 233.931C56.1461 230.748 53.572 228.168 50.3968 228.168C47.2215 228.168 44.6475 230.748 44.6475 233.931C44.6475 237.114 47.2215 239.695 50.3968 239.695Z" fill="#3F3D56"/>
<path d="M107.068 239.695C110.243 239.695 112.817 237.114 112.817 233.931C112.817 230.748 110.243 228.168 107.068 228.168C103.892 228.168 101.318 230.748 101.318 233.931C101.318 237.114 103.892 239.695 107.068 239.695Z" fill="#3F3D56"/>
<path d="M173.87 115.1C175.835 115.1 177.429 113.503 177.429 111.532C177.429 109.562 175.835 107.964 173.87 107.964C171.904 107.964 170.311 109.562 170.311 111.532C170.311 113.503 171.904 115.1 173.87 115.1Z" fill="#3F3D56"/>
<path d="M124.516 190.021H38.9685L20.458 129.371H143.579L143.467 129.727L124.516 190.021ZM39.3736 189.472H124.115L142.833 129.92H21.1981L39.3736 189.472Z" fill="#2F2E41"/>
<path d="M117.839 186.865H42.6989L26.4404 133.075H134.582L134.484 133.392L117.839 186.865Z" fill="#F2F2F2"/>
<path d="M145.113 123.952L144.584 123.811L148.197 110.16H169.215V110.709H148.619L145.113 123.952Z" fill="#2F2E41"/>
<path d="M137.427 147.758H26.4395V148.307H137.427V147.758Z" fill="#2F2E41"/>
<path d="M131.072 167.979H32.6123V168.528H131.072V167.979Z" fill="#2F2E41"/>
<path d="M82.2917 129.645H81.7441V189.747H82.2917V129.645Z" fill="#2F2E41"/>
<path d="M106.807 129.628L102.876 189.728L103.422 189.764L107.353 129.664L106.807 129.628Z" fill="#2F2E41"/>
<path d="M57.2398 129.627L56.6934 129.663L60.6011 189.765L61.1476 189.729L57.2398 129.627Z" fill="#2F2E41"/>
<path d="M288 240.043H0V240.687H288V240.043Z" fill="#2F2E41"/>
<path d="M191.382 19.9367C191.382 19.9367 196.081 33.3425 193.189 35.4049C190.297 37.4673 202.948 54.3104 202.948 54.3104L218.129 50.1856L209.815 36.0924C209.815 36.0924 208.731 21.9991 208.731 19.9367C208.731 17.8743 191.382 19.9367 191.382 19.9367Z" fill="#A0616A"/>
<path opacity="0.1" d="M191.382 19.9367C191.382 19.9367 196.081 33.3425 193.189 35.4049C190.297 37.4673 202.948 54.3104 202.948 54.3104L218.129 50.1856L209.815 36.0924C209.815 36.0924 208.731 21.9991 208.731 19.9367C208.731 17.8743 191.382 19.9367 191.382 19.9367Z" fill="black"/>
<path d="M183.495 115.496C183.495 115.496 182.124 132.682 183.495 141.62C184.867 150.557 186.924 175.306 186.924 175.306C186.924 175.306 186.924 222.054 194.468 222.742C202.012 223.429 207.499 224.116 208.185 221.367C208.871 218.617 204.756 217.242 206.813 215.867C208.871 214.492 209.556 209.68 206.813 204.18C204.07 198.68 206.813 142.995 206.813 142.995L219.844 178.056C219.844 178.056 221.215 206.93 222.587 211.054C223.959 215.179 221.215 222.742 226.016 223.429C230.817 224.116 236.303 219.992 239.047 218.617C241.79 217.242 234.932 217.242 236.303 216.554C237.675 215.867 241.79 213.804 240.418 213.117C239.047 212.429 237.675 179.431 237.675 179.431C237.675 179.431 233.903 108.965 229.102 106.215C224.301 103.465 221.215 108.201 221.215 108.201L183.495 115.496Z" fill="#2F2E41"/>
<path d="M195.84 219.992V225.491C195.84 225.491 189.668 240.442 195.84 240.442C202.012 240.442 206.813 241.991 206.813 239.928V221.367L195.84 219.992Z" fill="#2F2E41"/>
<path d="M236.303 219.982V225.482C236.303 225.482 242.476 240.432 236.303 240.432C230.131 240.432 225.33 241.981 225.33 239.919V221.357L236.303 219.982Z" fill="#2F2E41"/>
<path d="M200.983 29.9051C207.801 29.9051 213.328 24.3648 213.328 17.5306C213.328 10.6963 207.801 5.15605 200.983 5.15605C194.166 5.15605 188.639 10.6963 188.639 17.5306C188.639 24.3648 194.166 29.9051 200.983 29.9051Z" fill="#A0616A"/>
<path d="M197.211 40.561C197.211 40.561 200.641 50.8731 206.127 48.8106L211.614 46.7482L221.215 112.746C221.215 112.746 213.671 123.745 202.698 116.871C191.725 109.996 197.211 40.561 197.211 40.561Z" fill="#333333"/>
<path d="M206.812 38.4985L209.899 31.9675C209.899 31.9675 228.073 40.561 230.816 43.3109C233.559 46.0608 233.559 50.1856 233.559 50.1856L228.759 67.3725C228.759 67.3725 230.13 105.184 230.13 106.558C230.13 107.933 234.931 115.496 231.502 112.746C228.073 109.996 227.387 107.246 224.644 111.371C221.901 115.496 215.728 120.308 215.728 120.308L206.812 38.4985Z" fill="#3F3D56"/>
<path d="M230.816 87.9967L228.759 107.246C228.759 107.246 216.414 118.246 219.158 118.933C221.901 119.62 223.272 116.871 223.272 116.871C223.272 116.871 228.073 121.683 230.816 118.933C233.56 116.183 240.418 90.0591 240.418 90.0591L230.816 87.9967Z" fill="#A0616A"/>
<path d="M201.247 0.0418451C198.51 -0.0562244 195.581 -0.104736 193.274 1.37358C192.212 2.11549 191.281 3.02922 190.519 4.07738C188.271 6.92517 186.33 10.5083 187.164 14.0417L188.134 13.6626C188.134 14.6058 187.925 15.5372 187.521 16.3893C187.658 15.9914 188.115 16.6347 187.993 17.0372L186.925 20.5495C188.68 19.9043 190.864 21.2106 191.132 23.0658C191.254 18.9863 191.676 14.3084 194.977 11.9197C196.642 10.7151 198.749 10.3473 200.776 10.0208C202.647 9.7195 204.607 9.43223 206.398 10.0494C208.19 10.6666 209.715 12.503 209.309 14.3576C210.135 14.0724 211.059 14.6494 211.467 15.4236C211.875 16.1978 211.897 17.1112 211.909 17.9868C212.789 18.6105 213.791 17.3719 214.15 16.3528C214.992 13.9607 215.741 11.4143 215.287 8.91859C214.834 6.42292 212.805 4.03792 210.274 4.02946C210.581 3.69125 210.745 3.24653 210.731 2.78937L208.645 2.61271C209.175 2.53755 209.662 2.28018 210.023 1.88467C209.185 2.80841 202.601 0.0903724 201.247 0.0418451Z" fill="#2F2E41"/>
<path d="M200.64 36.4361C200.64 36.4361 195.057 30.9519 193.048 31.2879C191.039 31.6238 188.296 36.4361 188.296 36.4361C188.296 36.4361 171.836 41.9359 172.522 47.4357C173.208 52.9355 180.752 79.747 180.752 79.747C180.752 79.747 186.924 112.058 181.437 115.496C175.951 118.933 207.499 127.87 208.184 123.745C208.87 119.62 210.242 78.372 208.184 72.1847C206.127 65.9975 200.64 36.4361 200.64 36.4361Z" fill="#3F3D56"/>
<path d="M224.645 47.4357H233.125C233.125 47.4357 239.047 73.5597 239.733 76.3096C240.418 79.0595 241.79 92.1215 241.104 92.1215C240.418 92.1215 226.702 89.3716 226.702 91.434L224.645 47.4357Z" fill="#3F3D56"/>
<path d="M224.358 112.127H191.893C188.725 97.5185 188.461 83.4038 191.893 69.9184H224.358C219.119 83.1613 218.791 97.1792 224.358 112.127Z" fill="#F2F2F2"/>
<path d="M178.694 94.1839L188.296 98.3088C188.296 98.3088 206.813 101.059 206.813 93.4965C206.813 85.9343 188.296 90.0591 188.296 90.0591L182.123 88.0807L178.694 94.1839Z" fill="#A0616A"/>
<path d="M180.752 43.3109L172.522 45.3733L166.349 81.8094C166.349 81.8094 164.292 91.434 167.721 92.1215C171.15 92.809 180.752 98.3088 180.752 98.3088C180.752 98.3088 182.123 87.9967 184.867 87.9967L178.008 82.4969L182.123 58.4353L180.752 43.3109Z" fill="#3F3D56"/>
<path d="M64.3662 113.709H19.3662V114.353H64.3662V113.709Z" fill="#F2F2F2"/>
<path d="M32.2229 107.909H31.5801V113.87H32.2229V107.909Z" fill="#F2F2F2"/>
<path d="M51.8304 107.909H51.1875V113.87H51.8304V107.909Z" fill="#F2F2F2"/>
<path d="M80.1162 18.336H35.1162V18.9804H80.1162V18.336Z" fill="#F2F2F2"/>
<path d="M67.9016 18.8193H67.2588V24.7801H67.9016V18.8193Z" fill="#F2F2F2"/>
<path d="M48.2942 18.8193H47.6514V24.7801H48.2942V18.8193Z" fill="#F2F2F2"/>
<path d="M125.438 81.8103H80.4375V82.4547H125.438V81.8103Z" fill="#F2F2F2"/>
<path d="M113.223 82.2936H112.58V88.2544H113.223V82.2936Z" fill="#F2F2F2"/>
<path d="M93.6155 82.2936H92.9727V88.2544H93.6155V82.2936Z" fill="#F2F2F2"/>
<path d="M48.9375 81.4881H3.9375V82.1325H48.9375V81.4881Z" fill="#F2F2F2"/>
<path d="M36.7229 81.9714H36.0801V87.9322H36.7229V81.9714Z" fill="#F2F2F2"/>
<path d="M17.1155 81.9714H16.4727V87.9322H17.1155V81.9714Z" fill="#F2F2F2"/>
<path d="M102.938 49.2676H57.9375V49.912H102.938V49.2676Z" fill="#F2F2F2"/>
<path d="M70.7942 43.4679H70.1514V49.4287H70.7942V43.4679Z" fill="#F2F2F2"/>
<path d="M90.4016 43.4679H89.7588V49.4287H90.4016V43.4679Z" fill="#F2F2F2"/>
</g>
<defs>
<clipPath id="clip0">
<rect width="288" height="241" fill="white"/>
</clipPath>
</defs>
</svg>
