<svg width="194" height="194" viewBox="0 0 194 194" fill="none" xmlns="http://www.w3.org/2000/svg">
<g opacity="0.5">
<path opacity="0.5" d="M97 194C150.572 194 194 150.572 194 97C194 43.4284 150.572 0 97 0C43.4284 0 0 43.4284 0 97C0 150.572 43.4284 194 97 194Z" fill="url(#paint0_linear)"/>
</g>
<path d="M97.189 191.335C149.631 191.335 192.143 148.822 192.143 96.3802C192.143 43.9383 149.631 1.42578 97.189 1.42578C44.7471 1.42578 2.23462 43.9383 2.23462 96.3802C2.23462 148.822 44.7471 191.335 97.189 191.335Z" fill="#F5F5F5"/>
<path d="M97.2779 191.71C115.832 191.74 133.985 186.307 149.472 176.09C145.973 156.968 132.657 155.878 132.657 155.878H59.2256C59.2256 155.878 46.6601 156.909 42.7356 174.5C58.7029 185.732 77.7562 191.743 97.2779 191.71V191.71Z" fill="#333333"/>
<path d="M96.2691 140.211C121.581 140.211 142.101 119.691 142.101 94.3791C142.101 69.0668 121.581 48.5472 96.2691 48.5472C70.9569 48.5472 50.4373 69.0668 50.4373 94.3791C50.4373 119.691 70.9569 140.211 96.2691 140.211Z" fill="#333333"/>
<path opacity="0.1" d="M81.4772 132.554H110.844V156.048C110.844 159.941 109.298 163.675 106.545 166.428C103.793 169.182 100.059 170.73 96.1661 170.731V170.731C92.2719 170.731 88.5371 169.184 85.7834 166.43C83.0297 163.677 81.4827 159.942 81.4827 156.048V132.554H81.4772Z" fill="black"/>
<path d="M82.4083 131.464H109.924C110.171 131.464 110.408 131.562 110.582 131.737C110.757 131.911 110.855 132.148 110.855 132.395V154.958C110.856 156.887 110.476 158.797 109.738 160.579C109 162.362 107.918 163.981 106.553 165.345C105.189 166.709 103.57 167.79 101.788 168.528C100.005 169.266 98.0951 169.645 96.1662 169.644V169.644C92.2719 169.644 88.5371 168.097 85.7835 165.344C83.0298 162.59 81.4828 158.855 81.4828 154.961V132.395C81.4828 132.149 81.5801 131.913 81.7535 131.739C81.9269 131.564 82.1623 131.466 82.4083 131.464V131.464Z" fill="#FDB797"/>
<path opacity="0.1" d="M81.53 143.643C90.9947 147.18 101.413 147.208 110.897 143.724V140.111H81.53V143.643Z" fill="black"/>
<path d="M96.269 145.608C119.517 145.608 138.363 126.762 138.363 103.515C138.363 80.2672 119.517 61.4213 96.269 61.4213C73.0213 61.4213 54.1754 80.2672 54.1754 103.515C54.1754 126.762 73.0213 145.608 96.269 145.608Z" fill="#FDB797"/>
<path opacity="0.1" d="M66.2852 65.2263C66.2852 65.2263 84.0259 101.236 134.068 80.3238L122.417 62.055L101.764 54.6425L66.2852 65.2263Z" fill="black"/>
<path d="M66.2852 64.6982C66.2852 64.6982 84.0259 100.708 134.068 79.7901L122.417 61.5213L101.764 54.1088L66.2852 64.6982Z" fill="#333333"/>
<path d="M66.1296 62.2579C67.3258 58.555 69.3932 55.1932 72.158 52.4551C80.4378 44.2698 94.0122 42.5438 100.975 33.2107C102.642 35.8011 101.353 39.7839 98.4731 40.8956C105.144 40.8512 112.873 40.2675 116.645 34.781C117.577 36.951 117.874 39.3409 117.501 41.673C117.129 44.0051 116.102 46.1836 114.541 47.9553C120.452 48.2332 126.77 52.2355 127.142 58.1416C127.398 62.0772 124.919 65.8016 121.698 68.0584C118.476 70.3153 114.552 71.352 110.702 72.1997C99.4626 74.6817 58.7948 85.0682 66.1296 62.2579Z" fill="#333333"/>
<path d="M54.1588 110.819C56.3216 110.819 58.0749 107.531 58.0749 103.476C58.0749 99.4205 56.3216 96.1329 54.1588 96.1329C51.996 96.1329 50.2427 99.4205 50.2427 103.476C50.2427 107.531 51.996 110.819 54.1588 110.819Z" fill="#FDB797"/>
<path d="M138.357 110.819C140.52 110.819 142.273 107.531 142.273 103.476C142.273 99.4205 140.52 96.1329 138.357 96.1329C136.194 96.1329 134.441 99.4205 134.441 103.476C134.441 107.531 136.194 110.819 138.357 110.819Z" fill="#FDB797"/>
<defs>
<linearGradient id="paint0_linear" x1="97" y1="194" x2="97" y2="0" gradientUnits="userSpaceOnUse">
<stop stop-color="#808080" stop-opacity="0.25"/>
<stop offset="0.54" stop-color="#808080" stop-opacity="0.12"/>
<stop offset="1" stop-color="#808080" stop-opacity="0.1"/>
</linearGradient>
</defs>
</svg>
